<!--?xml version="1.0" encoding="utf-8"?-->
<!-- Generator: Adobe Illustrator 18.1.1, SVG Export Plug-In . SVG Version: 6.00 Build 0)  -->

<svg version="1.1" id="_x32_" xmlns="http://www.w3.org/2000/svg" xmlns:xlink="http://www.w3.org/1999/xlink" x="0px" y="0px" viewBox="0 0 512 512" style="width: 256px; height: 256px; opacity: 1;" xml:space="preserve">
<style type="text/css">
	.st0{fill:#4B4B4B;}
</style>
<g>
	<path class="st0" d="M439.496,225.192c63.81-95.16,44.662-175.437-14.357-208.941c-55.38-31.434-87.494-2.883-122.815,6.722
		c-44.662-29.842-107.121-33.412-185.002,6.042c-38.28-1.591-84.542,36.673-76.568,73.362c3.246,14.914,14.38,24.549,26.465,30.738
		c-0.602,5.348-0.579,10.4,0.116,14.99c1.306,8.562,2.017,15.98,2.056,22.687c-7.063,2.952-24.225,9.396-36.612,8.152
		c0,0,14.04,11.22,34.208,11.304c-3.222,11.452-9.844,21.76-20.917,34.417c-11.877,13.576,1.066,21.265,6.382,24.464
		c5.317,3.183,8.5,15.94,3.191,21.257c-5.316,5.324,0,8.508,4.251,11.706c4.25,3.176-4.482,12.023,0,14.883
		c11.706,7.441,6.374,20.206,7.441,28.714c1.059,8.5,8.754,21.991,39.346,11.683c48.905-16.489,66.987,26.582,78.686,64.878
		c11.691,38.264-40.938,100.468-40.938,100.468c-22.332,25.515,81.343-7.974,122.814-23.923
		c22.772-8.762,75.495-33.489,61.663-47.847c0,0-26.574-14.356-40.93-41.463c-17.641-33.335-16.652-57.274-13.291-64.877
		c15.871-35.838,69.9-84.744,85.075-139.352c10.316-27.786,14.017-58.456,1.592-87.656c-4.574-10.71-9.876-20.785-15.895-30.089
		c26.426,5.502,61.021,23.382,43.002,80.593c-18.066,57.428-63.788,138.238-23.924,195.118
		c33.327,47.545,86.134,31.905,86.134,31.905C426.738,346.423,387.754,302.37,439.496,225.192z" style="fill: rgb(0, 0, 0);"></path>
</g>
</svg>
