<!--?xml version="1.0" encoding="utf-8"?-->
<!-- Generator: Adobe Illustrator 18.1.1, SVG Export Plug-In . SVG Version: 6.00 Build 0)  -->

<svg version="1.1" id="_x32_" xmlns="http://www.w3.org/2000/svg" xmlns:xlink="http://www.w3.org/1999/xlink" x="0px" y="0px" viewBox="0 0 512 512" style="width: 256px; height: 256px; opacity: 1;" xml:space="preserve">
<style type="text/css">
	.st0{fill:#4B4B4B;}
</style>
<g>
	<path class="st0" d="M510.159,392.021l-45.585-57.325V93.613c0-11.662-9.458-21.12-21.12-21.12H68.554
		c-11.67,0-21.119,9.458-21.119,21.12v241.083L1.841,392.021C0.657,393.516,0,395.366,0,397.285v25.373
		c0,9.311,7.547,16.849,16.858,16.849h478.294c9.302,0,16.849-7.538,16.849-16.849v-25.373
		C512,395.366,511.352,393.516,510.159,392.021z M77.234,102.293h357.54v202.604H77.234V102.293z M304.122,419.469h-96.245v-25.478
		h96.245V419.469z" style="fill: rgb(0, 0, 0);"></path>
	<path class="st0" d="M389.12,176.284c-0.389-2.005-2.1-3.474-4.14-3.544l-16.642-0.658c-2.697-6-6.32-11.411-10.677-16.088
		l5.888-15.588c0.717-1.91,0.008-4.054-1.669-5.196l-8.8-5.921c-1.678-1.133-3.943-0.978-5.438,0.423l-12.216,11.316
		c-5.974-2.291-12.354-3.614-18.94-3.838l-6.856-15.189c-0.848-1.85-2.862-2.888-4.841-2.498l-10.418,2.04
		c-1.997,0.388-3.467,2.101-3.545,4.132l-0.648,16.65c-6.008,2.688-11.428,6.32-16.097,10.677l-15.587-5.888
		c-1.91-0.717-4.063-0.008-5.187,1.66l-5.93,8.801c-1.124,1.685-0.976,3.942,0.415,5.446l11.316,12.224
		c-2.273,5.965-3.596,12.354-3.83,18.932l-15.18,6.856c-1.859,0.848-2.888,2.853-2.499,4.841l2.032,10.418
		c0.39,2.005,2.101,3.458,4.132,3.545l16.66,0.648c2.68,6.008,6.31,11.42,10.685,16.088l-5.887,15.595
		c-0.718,1.91-0.036,4.055,1.651,5.196l8.792,5.914c1.694,1.132,3.943,0.985,5.438-0.415l12.232-11.307
		c5.974,2.273,12.362,3.596,18.924,3.821l6.873,15.189c0.838,1.85,2.844,2.888,4.842,2.499l10.417-2.032
		c1.988-0.39,3.458-2.101,3.544-4.132l0.649-16.66c5.99-2.68,11.411-6.31,16.088-10.676l15.588,5.887
		c1.91,0.727,4.063,0.018,5.196-1.668l5.921-8.783c1.133-1.686,0.968-3.943-0.414-5.455l-11.317-12.224
		c2.283-5.965,3.597-12.354,3.83-18.924l15.189-6.864c1.85-0.847,2.888-2.844,2.498-4.842L389.12,176.284z M320.246,226.304
		c-16.573,3.243-32.652-7.581-35.877-24.154c-3.251-16.572,7.573-32.643,24.146-35.885c16.572-3.233,32.643,7.582,35.894,24.154
		C347.632,206.992,336.817,223.071,320.246,226.304z" style="fill: rgb(0, 0, 0);"></path>
	<path class="st0" d="M240.115,227.922l-11.8-3.822c-0.726-4.85-2.222-9.466-4.401-13.694l7.358-9.985
		c0.899-1.228,0.83-2.896-0.147-4.054l-5.11-6.034c-0.976-1.133-2.62-1.478-3.985-0.778l-11.048,5.645
		c-3.821-2.844-8.127-5.066-12.778-6.579l-1.876-12.259c-0.225-1.504-1.452-2.654-2.956-2.774l-7.884-0.649
		c-1.495-0.121-2.904,0.804-3.371,2.265l-3.822,11.792c-4.85,0.726-9.466,2.222-13.685,4.4l-9.994-7.357
		c-1.228-0.907-2.904-0.83-4.054,0.156l-6.026,5.101c-1.141,0.985-1.478,2.619-0.786,3.985l5.636,11.048
		c-2.826,3.813-5.066,8.135-6.562,12.786l-12.268,1.867c-1.504,0.225-2.645,1.46-2.766,2.956l-0.648,7.884
		c-0.13,1.504,0.804,2.896,2.239,3.372l11.818,3.821c0.717,4.85,2.222,9.466,4.4,13.685l-7.357,9.994
		c-0.899,1.228-0.829,2.904,0.147,4.063l5.101,6.017c0.985,1.15,2.627,1.486,3.993,0.795l11.04-5.636
		c3.813,2.818,8.135,5.066,12.786,6.552l1.867,12.268c0.234,1.504,1.46,2.654,2.956,2.775l7.893,0.639
		c1.495,0.13,2.896-0.804,3.363-2.239l3.821-11.818c4.85-0.708,9.475-2.213,13.694-4.392l9.985,7.358
		c1.228,0.899,2.904,0.821,4.054-0.138l6.035-5.118c1.141-0.968,1.477-2.62,0.795-3.976l-5.654-11.057
		c2.835-3.821,5.075-8.127,6.561-12.786l12.268-1.868c1.513-0.233,2.654-1.461,2.775-2.957l0.648-7.884
		C242.492,229.789,241.567,228.397,240.115,227.922z M182.686,255.931c-14.004-1.141-24.439-13.442-23.307-27.448
		c1.15-14.014,13.443-24.439,27.448-23.307c14.014,1.15,24.448,13.443,23.298,27.448
		C208.984,246.647,196.691,257.072,182.686,255.931z" style="fill: rgb(0, 0, 0);"></path>
</g>
</svg>
